<svg width="132" height="132" viewBox="0 0 132 132" fill="none" xmlns="http://www.w3.org/2000/svg">
<path fill-rule="evenodd" clip-rule="evenodd" d="M66.5139 108.878C67.3637 108.542 68.4567 108.089 69.723 107.52C72.9272 106.079 77.1547 103.927 81.3399 101.07C90.0126 95.1503 96.9421 87.3195 96.9421 77.6935V42.4852L66.5139 25.0172L36.0856 42.4852V77.6935C36.0856 87.3195 43.0152 95.1503 51.6879 101.07C55.8731 103.927 60.1006 106.079 63.3048 107.52C64.5711 108.089 65.664 108.542 66.5139 108.878ZM30 38.9617L66.5139 18L103.028 38.9617V77.6935C103.028 103.199 66.5139 115.37 66.5139 115.37C66.5139 115.37 30 103.199 30 77.6935V38.9617Z" fill="#1D1D1B"/>
<path fill-rule="evenodd" clip-rule="evenodd" d="M81.61 58.2925L61.2521 78.6505L50 67.3984L54.2925 63.1058L61.2521 70.0654L77.3175 54L81.61 58.2925Z" fill="#00A88E"/>
</svg>
