<svg version="1.1" id="Layer_1" xmlns="http://www.w3.org/2000/svg" x="0" y="0" viewBox="0 0 44 44" xml:space="preserve"><style>.st0{fill:#67aefa}</style><path class="st0" d="M3.5 17.5c.3-.5.6-.6 1.2-.6h11.1l-.3-.3C11.8 13 8.1 9.3 4.5 5.7c-.5-.5-.6-1-.2-1.4.4-.4.9-.3 1.4.2l10.9 10.9.3.3v-.5V4.6c0-.5.1-.9.6-1.2h.5c.4.2.6.6.6 1.1v14h-14c-.5 0-.9-.1-1.1-.6v-.4zM26.5 3.5c.5.3.6.7.6 1.2v11.1l.3-.3c3.6-3.7 7.3-7.4 10.9-11 .2-.2.4-.3.7-.4s.6.1.8.4.1.6-.1.9c0 .1-.1.2-.2.3L28.6 16.6l-.3.3h11c.5 0 .9.1 1.2.6v.5c-.2.5-.6.6-1.1.6h-14v-.4V4.6c0-.5.1-.9.6-1.1h.5zM40.5 26.5c-.3.5-.6.6-1.2.6H28.2l.3.3 10.9 10.9c.2.2.3.5.4.7.1.3-.1.6-.4.8-.3.2-.6.1-.9-.1l-.3-.3-10.9-10.9-.3-.3v11c0 .5-.1.9-.6 1.2h-.5c-.5-.2-.6-.6-.6-1.1V25.7v-.4h14c.5 0 .9.1 1.1.6.1.2.1.4.1.6zM17.5 40.5c-.5-.3-.6-.7-.6-1.2V28.8v-.5l-.3.3c-3.7 3.7-7.3 7.3-11 10.9-.2.2-.5.3-.7.4-.3.1-.6-.1-.7-.4-.2-.3-.1-.6 0-.9l.3-.3 10.9-10.9.3-.3h-11c-.5 0-.9-.1-1.2-.6V26c.2-.5.6-.6 1.1-.6h14v14c0 .5-.1.9-.6 1.1h-.5z"/></svg>