<svg version="1.1" id="Layer_1" xmlns="http://www.w3.org/2000/svg" x="0" y="0" viewBox="0 0 44 44" xml:space="preserve"><style>.st0{fill:#67aefa}</style><path class="st0" d="M36.9 43c-.4-.1-.8-.2-1.1-.3-1.7-.6-2.8-1.8-3.3-3.4 0-.1-.1-.2-.1-.3H14.7v-8.1h7.2c6.3 0 11.3-4.3 12.2-10.5 1-6.2-3.4-12.4-9.6-13.6-6.8-1.4-13.1 2.8-14.5 9.6-.1.5-.1 1-.2 1.5h2.1c-1.6 2-3.2 3.9-4.8 5.8C5.5 21.9 3.9 20 2.3 18h2.1c.2-1.1.3-2.1.5-3.1 1.2-5.4 4.4-9.4 9.3-12 2-1 4.2-1.6 6.4-1.8.1 0 .2 0 .3-.1h2.4c.6 0 1.1.1 1.7.1 9.4 1.5 16 10.5 14.5 20-1 6.2-4.4 10.7-10.1 13.4-.1.1-.2.1-.4.2 1.2.1 2.4.1 3.5.1.3 0 .5-.1.6-.3 1.3-1.8 3.2-2.7 5.4-2.3s3.6 1.7 4.3 3.8c.1.3.1.5.2.8v1.4c0 .1-.1.2-.1.2-.5 2.2-1.8 3.6-3.9 4.3-.3.1-.5.1-.8.2-.4.1-.8.1-1.3.1zm-21-8h6.3c1.1 0 2.1-.1 3.2-.4 8.5-1.8 14.1-10 12.6-18.6C36.5 6.6 27.3.6 18.2 2.8 11.4 4.4 6.4 10.3 5.8 17.3c-.1.7-.1 1.3-.1 2h-.5c.7.8 1.3 1.5 1.9 2.3.7-.8 1.3-1.5 1.9-2.3h-.7c.1-1.1.2-2.3.4-3.4 1.5-7.7 9.4-12.5 17-10.3 7.9 2.3 12.1 11.1 8.6 18.6-2.4 5.1-6.6 7.8-12.2 8-1.9.1-3.8 0-5.7 0h-.5V35zm25.7 2.6c0-2.2-1.8-4.1-4.1-4.1-2.2 0-4.1 1.8-4.1 4.1 0 2.2 1.8 4.1 4.1 4.1 2.3-.1 4.1-1.9 4.1-4.1zm-25.7 0h16.2c.1-.4.1-.9.2-1.3H15.9v1.3z"/><path class="st0" d="M1 27c.3-.8.7-1.4 1.6-1.6H11c1.4 0 2.2.8 2.2 2.2v12.8c0 1.3-.4 2.2-1.6 2.6h-9c-.8-.3-1.3-.8-1.6-1.6V27zm1.4 7.3v6.5c0 .7.2.9.9.9h7.6c.7 0 .9-.2.9-.9v-13c0-.7-.2-.9-.9-.9H3.3c-.7 0-.9.2-.9.9v6.5zM14.7 22.9c.2-.4.5-.8.8-1.3-.5-.1-.9-.2-1.4-.4-.1 0-.3-.2-.3-.3v-4.6c0-.2.1-.3.3-.4.4-.1.8-.2 1.3-.3-.3-.5-.6-1-.8-1.4l3.6-3.6c.4.2.9.5 1.4.8.1-.5.2-.9.4-1.3 0-.1.2-.3.3-.3h4.9c.1.5.3 1.1.4 1.6.4-.2.8-.5 1.2-.7.1-.1.3 0 .4 0l3.3 3.3c.1.1.1.3 0 .4-.2.4-.4.8-.7 1.2.5.1 1.1.3 1.6.4v4.8c0 .3-.1.4-.3.4-.4.1-.8.2-1.3.3.3.5.6.9.8 1.4L27 26.5c-.4-.2-.9-.5-1.4-.8-.1.5-.2.9-.3 1.3-.1.2-.1.3-.4.3h-4.5c-.2 0-.3-.1-.4-.3-.1-.4-.2-.8-.3-1.3-.5.3-.9.6-1.4.8-1.2-1.1-2.4-2.2-3.6-3.6zm1.7-8.4c.2.4.5.8.7 1.2.2.4-.1 1-.5 1.1-.5.1-.9.2-1.4.4v3h.1c.4.1.8.2 1.3.3.4.1.7.8.5 1.1-.2.4-.5.8-.7 1.1l2.2 2.2c.3-.2.7-.4 1-.6.5-.3 1.1-.1 1.2.5.1.4.2.9.3 1.3h3c.1-.2.1-.5.2-.7s.1-.4.2-.7c.1-.4.8-.7 1.2-.5.4.2.8.5 1.2.7l2.1-2.1c-.2-.3-.4-.7-.6-1.1-.3-.5-.1-1.1.5-1.2.4-.1.9-.2 1.3-.3v-3c-.4-.1-.9-.2-1.3-.3-.5-.1-.8-.8-.5-1.2.2-.4.5-.8.6-1.1-.7-.7-1.4-1.4-2.2-2.1-.2.1-.3.2-.5.3l-.6.3c-.4.2-1.1 0-1.2-.5-.1-.4-.2-.9-.3-1.3h-3v.1c-.1.4-.2.8-.3 1.3-.1.4-.8.7-1.1.5-.4-.2-.8-.5-1.2-.7-.8.5-1.5 1.2-2.2 2zM35.2 38.8c.3-.3.6-.6.9-1 .3.3.5.6.8 1 1-1 2-2 2.9-3l.9.9-3.8 3.8c-.5-.5-1.1-1.2-1.7-1.7z"/><path class="st0" d="M10.5 28.1v1.3H3.8v-1.3h6.7zM3.7 32.1v-1.3h6.7v1.3H3.7zM3.7 33.5h6.7v1.3H3.7v-1.3zM10.5 36.3v1.3H3.8v-1.3h6.7zM5 40.3H3.7V39H5v1.3zM6.5 39h1.3v1.3H6.5V39zM10.5 40.3H9.2V39h1.3v1.3zM22.7 13.9c2.6 0 4.7 2.1 4.7 4.8 0 2.6-2.1 4.7-4.8 4.7-2.6 0-4.7-2.2-4.7-4.8 0-2.6 2.2-4.7 4.8-4.7zm3.4 4.7c0-1.9-1.5-3.4-3.4-3.4s-3.4 1.5-3.4 3.3c0 1.9 1.5 3.4 3.4 3.4 1.8.1 3.4-1.4 3.4-3.3z"/><path class="st0" d="M22.7 16.6c1.1 0 2 .9 2 2.1 0 1.1-.9 2-2 2s-2-.9-2-2.1c0-1.1.9-2 2-2zm-.7 2c0 .4.3.7.6.7.4 0 .7-.3.7-.6 0-.4-.3-.7-.6-.7-.4-.1-.7.3-.7.6z"/></svg>