<svg version="1.1" id="Layer_1" xmlns="http://www.w3.org/2000/svg" x="0" y="0" viewBox="0 0 44 44" xml:space="preserve"><style>.st0{fill:#67aefa}</style><path class="st0" d="M28.6 43H13c-.5-.2-.6-.6-.6-1.1v-.6c0-2 1.2-3.2 3.2-3.2h1.7v-2.8H4.4c-1.4 0-2.5-.7-3.1-2-.1-.3-.2-.5-.3-.8V8.9v-.1c.5-1.9 1.6-2.7 3.6-2.7H23.2c.1-.3.2-.5.3-.7.8-.8 1.6-1.7 2.5-2.5.4-.3.8-.3 1.1 0 .2.1.3.1.4.3.6.6.6.5 1.4.3s1-.6.9-1.4c-.1-.5.1-.8.6-1h3.9c.5.2.6.6.6 1v.8c0 .1.1.3.2.3l1.5.6c.2-.2.4-.5.6-.7.5-.6.9-.6 1.5 0l2.1 2.1c.6.6.6.9 0 1.5-.2.2-.6.4-.6.7.1.3.3.6.4.9.3.8.3.8 1.3.8.5 0 .9.1 1.1.6v3.9c-.2.5-.6.6-1 .6h-.8c-.1 0-.3.1-.3.2l-.6 1.5c.3.2.6.5.9.8.4.4.3.8 0 1.2 0 .1-.1.1-.1.1-.4.3-.5.6-.5 1.1v12.5c0 2.2-1.4 3.6-3.6 3.6H24.2V38h2c1.4 0 2.6 1 2.8 2.4.1.5 0 .9.1 1.4.1.6-.1 1-.5 1.2zm-4.1-27.2l-.3-.6c-.2-.4-.2-.9-.5-1-.3-.2-.8-.1-1.2-.1-.6 0-.9-.3-.9-.9V9.8c0-.5.3-.8.8-.9h1c.1 0 .3-.1.3-.2.2-.4.3-.8.5-1.2H4.4c-1.2 0-1.8.7-1.8 1.9v14.9h6.2c.6 0 1 .4.9 1-.1.5-.4.7-.9.7H2.7v2.3h30.6c.4.1.7.4.7.8s-.3.8-.8.8H2.6v1.7c0 1.1.7 1.8 1.8 1.8H37c1.2 0 1.8-.7 1.8-1.8V20.4 20c-.8.6-1 .5-1.7-.2-.2-.2-.4-.4-.5-.6-.6.2-1.1.4-1.5.6-.1 0-.2.2-.2.3v1c0 .5-.3.8-.9.8h-3.4c-.6 0-.9-.3-.9-.9v-1c0-.1-.1-.3-.2-.3l-1.5-.6c-.3.3-.5.6-.8.8-.4.4-.8.4-1.2 0l-2.4-2.4c-.4-.4-.4-.8 0-1.3.3.3.6-.1.9-.4zM38 4.5l-.3.3-.3.3c-.4.4-.7.4-1.2.1-.7-.3-1.5-.6-2.2-.9-.5-.2-.7-.4-.7-.9v-1h-1.9v1c0 .5-.2.7-.7.9-.8.3-1.5.6-2.2.9-.5.2-.8.2-1.2-.1-.2-.2-.4-.5-.6-.6l-1.4 1.4c.2.2.4.4.7.6.4.4.4.7.1 1.2-.3.7-.6 1.5-.9 2.2-.2.5-.4.7-.9.7h-1v1.9h1c.5 0 .7.2.9.7.3.8.6 1.5.9 2.3.2.4.2.8-.2 1.1-.2.2-.5.4-.8.7.3.3.5.4.7.7.2.2.4.5.6.8.3-.3.5-.6.7-.8.4-.4.7-.4 1.2-.2l2.1.9c.5.2.7.4.7 1v.9H33v-1.1c0-.4.2-.7.6-.8.8-.3 1.6-.6 2.3-1 .4-.2.7-.2 1.1.1l.7.7 1.4-1.4c-.2-.2-.5-.4-.7-.6-.4-.4-.4-.7-.1-1.2l.9-2.1c.2-.5.4-.7 1-.8h.9v-1.9h-1c-.5 0-.7-.2-.9-.7-.3-.8-.6-1.5-.9-2.3-.2-.4-.2-.8.1-1.1.2-.2.5-.4.7-.6-.2-.4-.6-.8-1.1-1.3zM14.1 41.3h13.4c.1-1-.5-1.6-1.5-1.6H15.5c-1 0-1.5.6-1.4 1.6zM19 38h3.6v-2.8H19V38z"/><path class="st0" d="M18.7 22.1c-.4-.2-.7-.3-.9-.5-.4-.2-1.1.1-1.1.6 0 1.3-.2 1.4-1.4 1.4h-2c-.7 0-1-.3-1-1v-.2c0-.5-.3-.9-.8-1-.1 0-.2 0-.3.1-.2.1-.4.2-.5.3-.5.4-1 .2-1.2-.2-.5-.8-.9-1.5-1.3-2.3-.3-.5-.2-.9.3-1.2 0-.1.1-.1.2-.1.5-.3.7-.6.5-1.1 0-.1-.1-.2-.2-.2-.1-.1-.3-.2-.4-.2-.7-.4-.8-.8-.4-1.5s.8-1.3 1.2-2c.4-.6.8-.7 1.4-.4.1 0 .1.1.2.1.4.2.9.2 1.2-.2 0-.1.1-.1.1-.2v-.5c0-.8.3-1.1 1.1-1.1h2.3c.7 0 1 .3 1 1v.2c0 .4.4.9.8 1 .1 0 .2 0 .3-.1l.6-.3c.4-.2.9-.1 1.1.3.5.8.9 1.6 1.4 2.4.2.4.1.8-.3 1.1-.1.1-.2.1-.2.1-.5.3-.7.5-.5 1.1 0 .1.2.2.3.3 1.1.7 1.2.8.5 2-.3.6-.7 1.2-1 1.8-.5.2-.7.3-1 .5zm-8.2-2c.1-.1.2-.1.4-.2.6-.3.8-.3 1.3.1.2.2.4.3.7.4.8.2 1.1.7 1 1.5v.1h1v-.4c0-.6.2-.9.8-1.1l.6-.3c.6-.6 1.3-.8 2-.1.2-.4.4-.7.6-1-.1-.1-.2-.1-.3-.2-.6-.3-.7-.7-.6-1.3 0-.2.1-.5 0-.7-.2-.8 0-1.4.8-1.7l.1-.1c-.2-.3-.3-.6-.5-.9-.1.1-.2.1-.3.2-.6.3-.8.3-1.3-.1-.3-.2-.7-.4-1.1-.6-.4-.2-.6-.4-.6-.9v-.6H14v.3c.1.6-.2 1-.8 1.2-.3.1-.5.2-.7.4-.6.6-1.2.6-1.8.1h-.1c-.2.3-.3.6-.5.9.1.1.3.2.4.2.5.3.6.5.5 1.1 0 .2-.1.5 0 .7.1.8.1 1.5-.9 1.8 0 .6.2.9.4 1.2zM35.6 29.3c0-.4.4-.8.8-.8s.8.4.8.8c0 .5-.4.8-.9.8-.4 0-.7-.4-.7-.8zM12.2 26.2c-.4 0-.8-.3-.8-.8s.4-.8.8-.8.8.4.8.8-.4.8-.8.8zM21.6 31.8c0 .5-.4.8-.9.8-.4 0-.8-.4-.8-.8 0-.5.4-.8.9-.8.4 0 .8.3.8.8zM32.3 16.6c-2.8 0-5.1-2.3-5.1-5.1s2.3-5.1 5.1-5.1 5.1 2.3 5.1 5.1c0 2.9-2.3 5.3-5.1 5.1zm0-8.5c-1.9 0-3.4 1.5-3.4 3.4s1.6 3.4 3.4 3.4c1.9 0 3.4-1.6 3.4-3.4.1-1.7-1.5-3.4-3.4-3.4z"/><path class="st0" d="M13.6 17.2c0-.4.4-.8.8-.8s.8.4.8.8-.4.8-.8.8-.8-.4-.8-.8z"/></svg>