<svg version="1.1" id="Layer_1" xmlns="http://www.w3.org/2000/svg" x="0" y="0" viewBox="0 0 44 44" xml:space="preserve"><style>.st0{fill:#67aefa}</style><path class="st0" d="M1 25.4h17.6v5.4h1.2c1.6 0 3.2 0 4.8-.1 5.2-.4 9.7-4.5 10.7-9.6 1.3-6.8-2.9-13.1-9.7-14.5-6.6-1.3-13.3 3.3-14.3 10-.1.4-.1.8-.2 1.3h2.1c-1.6 2-3.2 3.9-4.8 5.8-1.6-1.9-3.2-3.8-4.8-5.8h2.1c.1-.9.2-1.9.4-2.8 1.4-7 7.2-12.7 14.3-13.8.6-.1 1.2-.2 1.7-.3h2.4c.6.1 1.1.2 1.7.2 9.4 1.5 16 10.5 14.5 20-1 6.2-4.4 10.6-10.1 13.4-.1.1-.3.1-.5.2h4.7v-2.7h8.1v9.5h-8.1v-2.7H18.6v4H1V25.4zm8.8-6.1c0-.8 0-1.6.1-2.4 1-7.7 8.1-13 15.7-11.7 7.9 1.3 12.9 9.3 10.8 17-1.5 5.5-6.2 9.4-11.8 9.8-1.8.1-3.6.1-5.4.1h-.5v2.7h4.9c1.1 0 2.1-.1 3.2-.4 8.5-1.8 14.1-10 12.6-18.6C37.8 6.7 28.7.6 19.7 2.8c-6.9 1.6-12 7.4-12.5 14.5-.1.7-.1 1.3-.1 2h-.5c.7.8 1.3 1.5 1.9 2.3.7-.8 1.3-1.5 1.9-2.3h-.6zm7.4 7.5H2.3v14.9h14.9V26.8zm19.1 6.7v6.7h5.4v-6.7h-5.4zm-17.7 4.1h16.2v-1.3H18.6v1.3z"/><path class="st0" d="M18 17.9h6.7v-6.7c3.8-.4 7.7 2.4 8.1 6.9.4 4.3-3.1 8-7.4 8s-7.8-3.7-7.4-8.2zm1.4 1.4c.2 2.6 2.7 5.6 6.4 5.4 2.9-.2 5.8-3.1 5.6-5.4h-12zm12-1.4c0-2.6-3-5.5-5.3-5.3v5.3h5.3z"/><path class="st0" d="M15.3 16.6c-.4-4.6 3.3-8.3 8.1-8.1v8.1h-8.1zm1.4-1.4H22V9.9c-2.5 0-5.3 2.7-5.3 5.3zM15.9 32.1H3.8v-1.3h12.1v1.3zM15.9 33.5v1.3H3.7v-1.3h12.2zM3.7 37.6v-1.3h12.1v1.3H3.7zM15.9 28.1v1.3H9.2v-1.3h6.7zM3.7 40.3V39h6.7v1.3H3.7zM5 29.4H3.7v-1.3H5v1.3zM6.4 28.1h1.3v1.3H6.4v-1.3zM13.2 40.3h-1.3V39h1.3v1.3zM15.9 40.3h-1.3V39h1.3v1.3zM37.6 34.9h2.7v1.3h-2.7v-1.3zM40.3 37.6v1.3h-2.7v-1.3h2.7zM23.3 22H22v-1.3h1.3V22zM26 22h-1.3v-1.3H26V22zM28.8 20.7V22h-1.3v-1.3h1.3z"/></svg>