<svg version="1.1" id="Layer_1" xmlns="http://www.w3.org/2000/svg" x="0" y="0" viewBox="0 0 44 44" xml:space="preserve"><style>.st0{fill:#67aefa}</style><path class="st0" d="M39.7 42.5H4.3c-.1 0-.2-.1-.3-.1-1.1-.3-1.9-1-2.4-2.1-.1-.2-.1-.4-.2-.6v-3.8h1.3v-.5-20.9c0-.4 0-.7.1-1.1.3-1.6 1.7-2.6 3.4-2.6h11.1v-.4c.2-4.1 3-7.5 7-8.6.5-.1 1-.2 1.4-.3h1.7c.1 0 .2 0 .3.1.8.2 1.7.3 2.5.7 3.5 1.6 5.4 4.3 5.7 8.1 0 .3.1.4.4.4h1.8c.7 0 1.3.2 1.8.7.9.7 1.3 1.7 1.3 2.9V36h1.3v3.8c0 .1-.1.2-.1.3-.2.9-.8 1.7-1.6 2.1-.3.1-.7.2-1.1.3zM2.9 37.2v2.4c0 .3.2.6.4.9.4.5 1.1.7 1.7.7h34.4c.8-.1 1.6-.7 1.7-1.5.1-.8 0-1.6 0-2.4h-3.9V14.8h-1.8c-.3 0-.5.1-.6.4-1.8 3.2-4.5 4.9-8.1 4.9-3.7 0-6.4-1.7-8.2-4.9-.1-.2-.3-.3-.5-.3H6.9v21.2h9.8c.2 0 .5.1.6.2.8.7 1.7 1.1 2.8 1.1h4c1.1 0 2-.4 2.8-1.1.1-.1.4-.2.6-.2H36v1.3h-7.9c-.2 0-.5.1-.6.2-.9.6-1.8 1-2.9 1.1h-4.8c-1.1 0-2-.4-2.8-1.1-.2-.1-.4-.2-.6-.2H3.6c-.4-.2-.6-.2-.7-.2zm25.6-18.7c-.8-2.3-1.5-4.6-2.3-6.8 0-.1 0-.1-.1-.2s-.2-.3-.4-.3c-2.1-.9-4.2-1.8-6.3-2.6-.1 0-.2-.1-.4-.1-.9 2.6-.2 5.8 1.8 7.8 2.2 2.1 4.7 2.8 7.7 2.2zm1.3-.5c4.9-2.1 6.3-8.4 2.9-12.4-.1 0-.1.1-.2.1-1.7 1.6-3.3 3.3-4.9 5-.1.1-.1.3-.1.5.4 1.4.9 2.8 1.4 4.1.3.9.5 1.8.9 2.7zM19.6 7.1c.1 0 .2.1.2.1 2.1.9 4.2 1.7 6.3 2.6.2.1.4.1.6-.1l4.8-4.8c.1-.1.1-.2.2-.2-3.4-3.1-9.5-2.4-12.1 2.4zm-1.9 6.3c-.1-.3-.2-.6-.2-.9 0-.4-.2-.4-.5-.4H6.4c-1.5 0-2.3.8-2.3 2.2v21.5h1.3v-.5V15c0-1.1.5-1.6 1.6-1.6h10.7zm17.8 0h1.7c.7 0 1.2.5 1.3 1.2v21.2h1.3v-.5-8.1-13.1c0-1.1-.7-2-1.8-2.1-.7-.1-1.5 0-2.3 0 0 .5-.1.9-.2 1.4z"/><path class="st0" d="M12 32.4c.1 1-.4 1.8-1.3 2-.9.3-1.8-.1-2.3-.8-.5-.8-.4-1.8.2-2.4.6-.7 1.6-.8 2.4-.4.2.1.3.1.5 0 .8-.5 1.5-1 2.3-1.5.2-.1.3-.2.2-.5-.1-1.2.8-2.2 2-2.2s2 1 1.9 2.2c0 .2 0 .4.2.5.8.5 1.6 1 2.3 1.6.2.1.3.1.5 0 .6-.3 1.1-.3 1.7-.1.2.1.3.1.5-.1 1.1-.9 2.1-1.7 3.2-2.6.2-.1.2-.2.2-.5-.2-.8.1-1.5.8-2 .7-.5 1.4-.5 2.1-.1s1.1 1.1.9 2c0 .3 0 .4.2.6.6.4 1.2.9 1.8 1.3.2.1.3.2.5.1.9-.4 1.8-.2 2.4.6.6.7.6 1.7 0 2.4-.5.7-1.5 1-2.4.6-.9-.4-1.3-1.2-1.2-2.2 0-.1-.1-.3-.1-.4-.6-.5-1.3-1-1.9-1.4-.1-.1-.3-.1-.4 0-.6.3-1.2.3-1.7 0-.1 0-.3 0-.4.1-1.1.9-2.2 1.7-3.3 2.6-.1.1-.2.3-.1.4.2 1.2-.5 2.2-1.7 2.3-1.1.2-2.1-.7-2.2-1.8v-.1c.2-.5-.1-.7-.5-.9-.7-.4-1.4-.9-2.1-1.4-.1-.1-.3-.1-.5 0-.6.3-1.3.3-1.9 0-.1-.1-.3-.1-.5 0-.8.5-1.6 1-2.4 1.6.2.2.2.4.1.5zm16.6-4.5c.4 0 .7-.3.6-.7 0-.4-.3-.6-.7-.6-.3 0-.6.3-.6.7.1.4.4.6.7.6zm-11.9.7c0-.4-.3-.7-.6-.7-.4 0-.7.3-.7.6 0 .4.3.7.6.7.4.1.7-.2.7-.6zm17.3 2c-.4 0-.7.2-.7.6s.2.7.6.7c.3 0 .7-.3.7-.6s-.3-.7-.6-.7zm-23.2 2c0-.4-.3-.7-.7-.7s-.7.3-.7.7c0 .3.3.6.6.6.5 0 .8-.3.8-.6zm11.8 0c0-.4-.3-.7-.6-.7-.4 0-.7.3-.7.7s.3.6.6.6c.4 0 .7-.2.7-.6zM18.7 16.1v9.2H8.2v-9.2h10.5zM9.5 24h7.9v-6.6H9.5V24zM22.7 24v-1.3h13.2V24H22.7zM33.3 39.8v-1.3h5.2v1.3h-5.2zM20 22.7h1.3V24H20v-1.3zM5.5 38.6h1.3v1.3H5.5v-1.3zM9.4 38.6v1.3H8.1v-1.3h1.3zM12.1 38.6v1.3h-1.3v-1.3h1.3z"/><path class="st0" d="M16 20h-5.2v-1.3H16V20zM16 21.4v1.3h-5.2v-1.3H16z"/></svg>